<svg width="579" height="597" viewBox="0 0 579 597" fill="none" xmlns="http://www.w3.org/2000/svg">
<g opacity="0.21" clip-path="url(#clip0_19_371)">
<path d="M189.28 0.712524C189.28 0.712524 138.289 129.431 356.826 215.891C475.573 262.858 566.778 383.238 457.879 569.195C448.861 486.075 410.19 302.807 243.906 260.986C243.906 260.986 398.673 320.701 412.344 591.008C332.819 602.529 146.307 610.27 90.9327 443.259C17.8106 222.6 189.28 0.712524 189.28 0.712524Z" fill="#006699"/>
<path d="M412.272 589.883C243.445 520.359 120.604 357.489 103.649 163.062C138.163 66.9975 189.28 0.712524 189.28 0.712524C189.28 0.712524 138.289 129.431 356.826 215.891C475.573 262.858 566.778 383.238 457.879 569.195C448.861 486.075 410.19 302.807 243.906 260.986C243.915 260.987 398.222 320.554 412.272 589.883Z" fill="#3C9DE4"/>
<path d="M474.725 220.182C466.009 220.182 458.942 212.891 458.942 203.896C458.942 194.902 466.009 187.611 474.725 187.611C483.442 187.611 490.508 194.902 490.508 203.896C490.508 212.891 483.442 220.182 474.725 220.182Z" fill="#87CDF4"/>
<path d="M425.124 199.243C418.898 199.243 413.851 194.035 413.851 187.611C413.851 181.186 418.898 175.979 425.124 175.979C431.35 175.979 436.397 181.186 436.397 187.611C436.397 194.035 431.35 199.243 425.124 199.243Z" fill="#56BFFB"/>
<path d="M435.269 106.185C419.704 106.185 407.087 93.165 407.087 77.1044C407.087 61.0438 419.704 48.0242 435.269 48.0242C450.834 48.0242 463.451 61.0438 463.451 77.1044C463.451 93.165 450.834 106.185 435.269 106.185Z" fill="#56BFFB"/>
<path d="M348.466 152.714C343.485 152.714 339.447 148.548 339.447 143.408C339.447 138.269 343.485 134.102 348.466 134.102C353.447 134.102 357.485 138.269 357.485 143.408C357.485 148.548 353.447 152.714 348.466 152.714Z" fill="#56BFFB"/>
<path d="M272.927 117.817C258.607 117.817 246.999 105.839 246.999 91.0626C246.999 76.2868 258.607 64.3086 272.927 64.3086C287.246 64.3086 298.855 76.2868 298.855 91.0626C298.855 105.839 287.246 117.817 272.927 117.817Z" fill="#56BFFB"/>
</g>
<defs>
<clipPath id="clip0_19_371">
<rect width="577.188" height="595.575" fill="white" transform="matrix(-1 0 0 1 578.089 0.712646)"/>
</clipPath>
</defs>
</svg>
