<svg width="42" height="42" viewBox="0 0 42 42" fill="none" xmlns="http://www.w3.org/2000/svg">
<g clip-path="url(#clip0_19_363)">
<path d="M28.0046 40.0083H16.0046L14.5046 28.0083H29.5046L28.0046 40.0083ZM36.6446 17.7183C36.0313 18.2521 35.316 18.6557 34.542 18.9046C33.768 19.1534 32.9514 19.2424 32.142 19.1661C31.3326 19.0898 30.5471 18.8497 29.8332 18.4606C29.1194 18.0714 28.4921 17.5412 27.9894 16.9022C27.4868 16.2632 27.1192 15.5286 26.9091 14.7432C26.699 13.9578 26.6507 13.1379 26.7671 12.3332C26.8836 11.5286 27.1623 10.756 27.5865 10.0624C28.0106 9.36876 28.5714 8.76858 29.2346 8.29829C31.8146 6.25829 40.0046 7.45829 40.0046 7.45829C40.0046 7.45829 39.2546 15.6783 36.6446 17.7183Z" stroke="#274C5B" stroke-width="3" stroke-linecap="round" stroke-linejoin="round"/>
<path d="M28.0046 16.4283C26.2701 17.8495 24.8435 19.6093 23.8119 21.6003C22.7803 23.5913 22.1653 25.7717 22.0046 28.0083C22.0046 19.0083 17.5046 13.0083 10.0046 8.5083" stroke="#274C5B" stroke-width="3" stroke-linecap="round" stroke-linejoin="round"/>
<path d="M5.26457 14.5085C6.73339 15.77 8.62454 16.4302 10.5594 16.3569C12.4942 16.2836 14.33 15.4821 15.6991 14.113C17.0682 12.7439 17.8697 10.9081 17.943 8.97328C18.0163 7.03844 17.3561 5.1473 16.0946 3.67847C13.0946 0.708474 2.50457 1.00847 2.50457 1.00847C2.50457 1.00847 2.26457 11.5085 5.26457 14.5085Z" stroke="#274C5B" stroke-width="3" stroke-linecap="round" stroke-linejoin="round"/>
</g>
<defs>
<clipPath id="clip0_19_363">
<rect width="42" height="42" fill="white"/>
</clipPath>
</defs>
</svg>
